<svg xmlns="http://www.w3.org/2000/svg" viewBox="0 0 64 64" aria-hidden="true" focusable="false"><circle class="il-bg" cx="32" cy="34" r="28"/><ellipse class="il-ground" cx="32" cy="55" rx="23" ry="3.2"/><rect class="il-cash il-stroke" x="12" y="17" width="13" height="7.5" rx="1" transform="rotate(-7 18 21)"/><rect class="il-cash-dark il-stroke" x="27" y="15" width="13" height="8" rx="1"/><circle class="il-coin il-stroke" cx="47" cy="20" r="4.6"/><path class="il-wood il-stroke" d="M12 30l4.5-7.5h31L52 30z"/><path class="il-detail" d="M23 22.5V30M32 22.5V30M41 22.5V30"/><rect class="il-wood il-stroke" x="7" y="29.5" width="50" height="23" rx="3"/><path class="il-shade" d="M48 29.5h6a3 3 0 0 1 3 3v17a3 3 0 0 1-3 3h-6z"/><path class="il-detail" d="M7 39.5h50"/><path class="il-line" d="M26 46.5h12"/></svg>