<svg xmlns="http://www.w3.org/2000/svg" viewBox="0 0 64 64" aria-hidden="true" focusable="false"><circle class="il-bg" cx="32" cy="34" r="28"/><ellipse class="il-ground" cx="32" cy="55" rx="21" ry="3.2"/><rect class="il-paper il-stroke" x="8" y="12" width="48" height="41" rx="3.5"/><path class="il-shade" d="M48 12h4.5a3.5 3.5 0 0 1 3.5 3.5v34a3.5 3.5 0 0 1-3.5 3.5H48z"/><path class="il-detail" d="M15 19h20"/><rect class="il-cash" x="15" y="36" width="7" height="10"/><rect class="il-amber" x="25.5" y="31" width="7" height="15"/><rect class="il-glass" x="36" y="25" width="7" height="21"/><path class="il-line" d="M12 46h34"/><path class="il-line-accent" d="M15 41l10-7 7 4 12-11"/><path class="il-line-accent" d="M38 27h7v7"/></svg>