<svg xmlns="http://www.w3.org/2000/svg" viewBox="0 0 64 64" aria-hidden="true" focusable="false"><circle class="il-bg" cx="32" cy="34" r="28"/><ellipse class="il-ground" cx="32" cy="54" rx="21" ry="3.2"/><path class="il-line-accent" d="M32 7v6.5M32 13.5l-8 7M32 13.5l8 7"/><rect class="il-cash il-stroke" x="5" y="28" width="27" height="19" rx="2.5"/><path class="il-shade" d="M26 28h3.5a2.5 2.5 0 0 1 2.5 2.5v14a2.5 2.5 0 0 1-2.5 2.5H26z"/><circle class="il-cash-dark il-stroke" cx="17" cy="37.5" r="5.4"/><path class="il-glyph-thin" d="M19.1 34.7a3.4 3.4 0 1 0 0 5.5"/><path class="il-glyph-thin" d="M16.0 33.8v7.5"/><rect class="il-phone il-stroke" x="38" y="21" width="21" height="33" rx="4"/><rect class="il-momo" x="41" y="26" width="15" height="21" rx="1.5"/><path class="il-shade" d="M54 21h1a4 4 0 0 1 4 4v25a4 4 0 0 1-4 4h-1z"/><path class="il-detail" d="M45.5 50.5h6"/></svg>